<?xml version="1.0" encoding="utf-8"?>
<!-- Generator: Adobe Illustrator 20.0.0, SVG Export Plug-In . SVG Version: 6.00 Build 0)  -->
<svg version="1.1" id="logo" xmlns="http://www.w3.org/2000/svg" xmlns:xlink="http://www.w3.org/1999/xlink" x="0px" y="0px"
	 width="1310.5px" height="200px" viewBox="0 0 1310.5 200" style="enable-background:new 0 0 1310.5 200;" xml:space="preserve">
<style type="text/css">
	.st0{fill:#EE9217;}
</style>
<path class="st0" d="M120.5,46v33v23.7c0,6.1-5,11.1-11.1,11.1H63.2c-6.1,0-11.1-5-11.1-11.1V79c0-6.1,5-11.1,11.1-11.1H51.7
	c-6.1,0-11.1,5-11.1,11.1v39.8c0,6.1,5,11.1,11.1,11.1h57.7c6.1,0,11.1-5,11.1-11.1v32.3c0,6.1-5,11.1-11.1,11.1H11.1
	c-6.1,0-11.1-5-11.1-11.1V46c0-6.1,5-11.1,11.1-11.1h98.2C115.5,34.9,120.5,39.9,120.5,46z M253.5,34.9H151.7
	c-6.1,0-11.1,5-11.1,11.1v12.7c0-6.1,4.2-7.4,10.3-7.4h72.9c6.1,0,11.1,5,11.1,11.1v49.4c0,6.1-5,11.1-11.1,11.1h-43.3
	c-6.1,0-11.1-5-11.1-11.1V97.4c0,6.1,5,11.1,11.1,11.1h26c6.1,0,11.1-5,11.1-11.1V73.7c0-6.1-5-11.1-11.1-11.1l-50.5-0.1
	c-8.4-0.1-15.3,6.8-15.3,15.2v73.5c0,6.1,5,11.1,11.1,11.1h101.8c6.1,0,11.1-5,11.1-11.1V46C264.6,39.9,259.6,34.9,253.5,34.9z
	 M545.3,34.9H443.6c-6.1,0-11.1,5-11.1,11.1v12.7c0-6.1,4.2-7.4,10.3-7.4h72.9c6.1,0,11.1,5,11.1,11.1v49.4c0,6.1-5,11.1-11.1,11.1
	h-43.3c-6.1,0-11.1-5-11.1-11.1V97.4c0,6.1,5,11.1,11.1,11.1h26c6.1,0,11.1-5,11.1-11.1V73.7c0-6.1-5-11.1-11.1-11.1H481h-8.7h-11.1
	l-13.5-0.1c-8.4-0.1-15.3,6.8-15.3,15.2v73.5c0,6.1,5,11.1,11.1,11.1h101.8c6.1,0,11.1-5,11.1-11.1V46
	C556.4,39.9,551.4,34.9,545.3,34.9z M766.2,46v105.1c0,6.1,5,11.1,11.1,11.1H879c6.1,0,11.1-5,11.1-11.1V77.7
	c0-8.4-6.9-15.3-15.3-15.2l-50.5,0.1c-6.1,0-11.1,5-11.1,11.1v23.7c0,6.1,5,11.1,11.1,11.1h26c6.1,0,11.1-5,11.1-11.1v14.3
	c0,6.1-5,11.1-11.1,11.1h-43.3c-6.1,0-11.1-5-11.1-11.1V62.4c0-6.1,5-11.1,11.1-11.1h72.9c6.1,0,10.3,1.3,10.3,7.4V46
	c0-6.1-5-11.1-11.1-11.1H777.3C771.2,34.9,766.2,39.9,766.2,46z M1197.6,162.3h101.8c6.1,0,11.1-5,11.1-11.1v-12.7
	c0,6.1-4.2,7.4-10.3,7.4h-72.9c-6.1,0-11.1-5-11.1-11.1V85.5c0-6.1,5-11.1,11.1-11.1h43.3c6.1,0,11.1,5,11.1,11.1v14.3
	c0-6.1-5-11.1-11.1-11.1h-26c-6.1,0-11.1,5-11.1,11.1v23.7c0,6.1,5,11.1,11.1,11.1l50.5,0.1c8.4,0.1,15.3-6.8,15.3-15.2V46
	c0-6.1-5-11.1-11.1-11.1h-101.8c-6.1,0-11.1,5-11.1,11.1v105.1C1186.5,157.3,1191.5,162.3,1197.6,162.3z M410.5,58.7V46
	c0-6.1-5-11.1-11.1-11.1H354h-56.4h-1.3c-6.1,0-11.1,5-11.1,11.1v31.8c0,1,0.2,2,0.4,2.9c0,0,0,0,0,0c0.6,2.2,1.9,4.1,3.6,5.5
	c0.2,0.1,0.3,0.3,0.5,0.4c0.3,0.2,0.6,0.4,0.9,0.6c0.3,0.2,0.6,0.3,0.9,0.5c0.3,0.1,0.5,0.3,0.8,0.4c0.4,0.2,0.8,0.3,1.2,0.4
	c0.2,0.1,0.5,0.1,0.7,0.2c0.7,0.1,1.4,0.2,2.1,0.2H354h14.4c6.1,0,11.1,5,11.1,11.1v49.4c0,6.1-5,11.1-11.1,11.1h-43.3
	c-6.1,0-11.1-5-11.1-11.1v-14.3c0,6.1,5,11.1,11.1,11.1h26c6.1,0,11.1-5,11.1-11.1v-23.7c0-6.1-5-11.1-11.1-11.1h-17.3h-8.7h-11.1
	l-13.5-0.1c-8.4-0.1-15.3,6.8-15.3,15.2v73.5c0,6.1,5,11.1,11.1,11.1h101.8c6.1,0,11.1-5,11.1-11.1V83.7c0-6.1-5-11.1-11.1-11.1
	h-10.5c-0.1,0-0.2,0.1-0.3,0.1h-21.8c-0.1,0-0.2,0-0.3-0.1h-0.1v0c-1.4-0.2-2.5-1.4-2.5-2.8V54.2c0-1.5,1.1-2.6,2.5-2.8v-0.1h0.4
	h21.8h12.8h0.6v0C406.6,51.4,410.5,52.8,410.5,58.7z M1029.7,48.9c0-7.7-6.3-14-14-14h-92.5c-7.7,0-14,6.3-14,14v99.3
	c0,7.7,6.3,14,14,14h39.9c-7.7,0-14-6.3-14-14V79.5c0-7.7,6.3-14,14-14h11.9c-7.7,0-14,6.3-14,14V100c0,7.7,6.3,14,14,14h40.6
	c7.7,0,14-6.3,14-14V79.5c0,0,0,0,0,0L1029.7,48.9z M1168.4,48.9c0-7.7-6.3-14-14-14h-92.5c-7.7,0-14,6.3-14,14v99.3
	c0,7.7,6.3,14,14,14h39.9c-7.7,0-14-6.3-14-14V79.5c0-7.7,6.3-14,14-14h11.9c-7.7,0-14,6.3-14,14V100c0,7.7,6.3,14,14,14h40.6
	c7.7,0,14-6.3,14-14V79.5c0,0,0,0,0,0L1168.4,48.9z M731.8,0H607.9c-7.7,0-14,6.3-14,14v30.6c0-7.7,6.3-14,14-14h3.6h9.1h14v14v19.3
	v82.5c0.1,8.5,6.8,15.4,15.1,15.9h42.9c-7.7,0-14-6.3-14-14V44.6c0-7.7,6.3-14,14-14h3.6h6.1c-7.7,0-14,6.3-14,14v19.9
	c0,7.7,6.3,14,14,14h29.4c7.7,0,14-6.3,14-14V44.6V14C745.8,6.3,739.5,0,731.8,0z"/>
</svg>
